<svg xmlns="http://www.w3.org/2000/svg" viewBox="0 0 512 512" width="512" height="512">
  <rect x="40" y="420" width="432" height="56" rx="10" fill="#D88874"/>
  <rect x="40" y="420" width="432" height="16" rx="6" fill="#A85440"/>

  <rect x="78" y="64" width="62" height="376" rx="12" fill="#D88874"/>
  <rect x="78" y="64" width="20" height="376" fill="#A85440"/>

  <rect x="372" y="64" width="62" height="376" rx="12" fill="#D88874"/>
  <rect x="414" y="64" width="20" height="376" fill="#A85440"/>

  <rect x="56" y="44" width="400" height="64" rx="12" fill="#A85440"/>
  <rect x="56" y="44" width="400" height="18" rx="8" fill="#8E3E2D"/>

  <polygon points="150,118 362,118 362,230 150,300"
           fill="#ECECEF" stroke="#8A8E95" stroke-width="3" stroke-linejoin="round"/>

  <polygon points="150,278 362,212 362,230 150,300" fill="#C0392B"/>

  <polygon points="158,126 354,126 354,144 158,168" fill="#FFFFFF" opacity="0.55"/>
</svg>
